<svg width="651" height="319" viewBox="0 0 651 319" fill="none" xmlns="http://www.w3.org/2000/svg">
<path d="M104.387 242.669C103.811 242.669 103.344 242.201 103.344 241.625V229.925H107.302V241.625C107.302 242.201 106.834 242.669 106.258 242.669H104.387Z" fill="#5B5B5B"/>
<path d="M118.901 242.669C118.325 242.669 117.857 242.201 117.857 241.625V229.925H121.815V241.625C121.815 242.201 121.348 242.669 120.772 242.669H118.901Z" fill="#5B5B5B"/>
<path d="M133.411 242.669C132.835 242.669 132.368 242.201 132.368 241.625V229.925H136.326V241.625C136.326 242.201 135.859 242.669 135.283 242.669H133.411Z" fill="#5B5B5B"/>
<path d="M147.923 242.669C147.347 242.669 146.88 242.201 146.88 241.625V229.925H150.838V241.625C150.838 242.201 150.371 242.669 149.794 242.669H147.923Z" fill="#5B5B5B"/>
<path d="M162.437 242.669C161.861 242.669 161.394 242.201 161.394 241.625V229.925H165.351V241.625C165.351 242.201 164.884 242.669 164.308 242.669H162.437Z" fill="#5B5B5B"/>
<path d="M176.95 242.669C176.374 242.669 175.906 242.201 175.906 241.625V229.925H179.864V241.625C179.864 242.201 179.397 242.669 178.82 242.669H176.95Z" fill="#5B5B5B"/>
<path d="M191.461 242.669C190.885 242.669 190.418 242.201 190.418 241.625V229.925H194.376V241.625C194.376 242.201 193.909 242.669 193.333 242.669H191.461Z" fill="#5B5B5B"/>
<path d="M205.973 242.669C205.397 242.669 204.93 242.201 204.93 241.625V229.925H208.888V241.625C208.888 242.201 208.421 242.669 207.845 242.669H205.973Z" fill="#5B5B5B"/>
<path d="M70 108.212C70 107.634 70.4671 107.167 71.0433 107.167H82.732V111.128H71.0433C70.4671 111.128 70 110.662 70 110.084L70 108.212Z" fill="#5B5B5B"/>
<path d="M70 122.739C70 122.162 70.4671 121.694 71.0433 121.694H82.732V125.655H71.0433C70.4671 125.655 70 125.189 70 124.611L70 122.739Z" fill="#5B5B5B"/>
<path d="M70 137.262C70 136.685 70.4671 136.217 71.0433 136.217H82.732V140.179H71.0433C70.4671 140.179 70 139.711 70 139.135L70 137.262Z" fill="#5B5B5B"/>
<path d="M70 151.787C70 151.211 70.4671 150.743 71.0433 150.743H82.732V154.705H71.0433C70.4671 154.705 70 154.237 70 153.66L70 151.787Z" fill="#5B5B5B"/>
<path d="M70 165.765C70 165.188 70.4671 164.72 71.0433 164.72H82.732V168.682H71.0433C70.4671 168.682 70 168.214 70 167.638L70 165.765Z" fill="#5B5B5B"/>
<path d="M70 180.839C70 180.261 70.4671 179.794 71.0433 179.794H82.732V183.755H71.0433C70.4671 183.755 70 183.288 70 182.711L70 180.839Z" fill="#5B5B5B"/>
<path d="M70 195.365C70 194.788 70.4671 194.321 71.0433 194.321H82.732V198.282H71.0433C70.4671 198.282 70 197.815 70 197.237L70 195.365Z" fill="#5B5B5B"/>
<path d="M70 209.892C70 209.315 70.4671 208.848 71.0433 208.848H82.732V212.809H71.0433C70.4671 212.809 70 212.342 70 211.764L70 209.892Z" fill="#5B5B5B"/>
<path d="M243.19 108.629C243.19 108.053 242.722 107.585 242.146 107.585H229.997V111.408H242.146C242.722 111.408 243.19 110.94 243.19 110.364V108.629Z" fill="#5B5B5B"/>
<path d="M243.19 122.647C243.19 122.07 242.722 121.603 242.146 121.603H229.997V125.426H242.146C242.722 125.426 243.19 124.958 243.19 124.381V122.647Z" fill="#5B5B5B"/>
<path d="M243.19 136.664C243.19 136.088 242.722 135.62 242.146 135.62H229.997V139.443H242.146C242.722 139.443 243.19 138.975 243.19 138.399V136.664Z" fill="#5B5B5B"/>
<path d="M243.19 150.684C243.19 150.106 242.722 149.64 242.146 149.64H229.997V153.463H242.146C242.722 153.463 243.19 152.995 243.19 152.418V150.684Z" fill="#5B5B5B"/>
<path d="M243.19 164.701C243.19 164.124 242.722 163.656 242.146 163.656H229.997V167.479H242.146C242.722 167.479 243.19 167.013 243.19 166.435V164.701Z" fill="#5B5B5B"/>
<path d="M243.19 178.72C243.19 178.144 242.722 177.676 242.146 177.676H229.997V181.499H242.146C242.722 181.499 243.19 181.032 243.19 180.455V178.72Z" fill="#5B5B5B"/>
<path d="M243.19 192.738C243.19 192.161 242.722 191.693 242.146 191.693H229.997V195.517H242.146C242.722 195.517 243.19 195.049 243.19 194.472V192.738Z" fill="#5B5B5B"/>
<path d="M243.19 206.755C243.19 206.179 242.722 205.711 242.146 205.711H229.997V209.534H242.146C242.722 209.534 243.19 209.066 243.19 208.49V206.755Z" fill="#5B5B5B"/>
<path d="M103.07 77C102.493 77 102.026 77.4678 102.026 78.0443V89.7435H105.984V78.0443C105.984 77.4678 105.517 77 104.941 77H103.07Z" fill="#5B5B5B"/>
<path d="M117.58 77C117.004 77 116.537 77.4678 116.537 78.0443V89.7435H120.495V78.0443C120.495 77.4678 120.028 77 119.452 77H117.58Z" fill="#5B5B5B"/>
<path d="M132.092 77C131.516 77 131.049 77.4678 131.049 78.0443V89.7435H135.007V78.0443C135.007 77.4678 134.54 77 133.963 77H132.092Z" fill="#5B5B5B"/>
<path d="M146.604 77C146.028 77 145.561 77.4678 145.561 78.0443V89.7435H149.518V78.0443C149.518 77.4678 149.051 77 148.475 77H146.604Z" fill="#5B5B5B"/>
<path d="M161.118 77C160.541 77 160.074 77.4678 160.074 78.0443V89.7435H164.032V78.0443C164.032 77.4678 163.565 77 162.989 77H161.118Z" fill="#5B5B5B"/>
<path d="M175.631 77C175.055 77 174.588 77.4678 174.588 78.0443V89.7435H178.546V78.0443C178.546 77.4678 178.079 77 177.503 77H175.631Z" fill="#5B5B5B"/>
<path d="M190.143 77C189.567 77 189.1 77.4678 189.1 78.0443V89.7435H193.058V78.0443C193.058 77.4678 192.591 77 192.015 77H190.143Z" fill="#5B5B5B"/>
<path d="M204.654 77C204.078 77 203.61 77.4678 203.61 78.0443V89.7435H207.569V78.0443C207.569 77.4678 207.101 77 206.525 77H204.654Z" fill="#5B5B5B"/>
<g filter="url(#filter0_d_950_709)">
<path d="M222.633 94.8408H90.9187C89.7662 94.8408 88.832 95.7759 88.832 96.9294V222.739C88.832 223.893 89.7662 224.828 90.9187 224.828H222.633C223.785 224.828 224.72 223.893 224.72 222.739V96.9294C224.72 95.7759 223.785 94.8408 222.633 94.8408Z" fill="#121212"/>
<path d="M222.633 94.8408H90.9187C89.7662 94.8408 88.832 95.7759 88.832 96.9294V222.739C88.832 223.893 89.7662 224.828 90.9187 224.828H222.633C223.785 224.828 224.72 223.893 224.72 222.739V96.9294C224.72 95.7759 223.785 94.8408 222.633 94.8408Z" stroke="#1A1A1A" stroke-width="2"/>
</g>
<g filter="url(#filter1_d_950_709)">
<path d="M223.737 89.7446H89.8146C86.3573 89.7446 83.5547 92.5499 83.5547 96.0104V223.661C83.5547 227.122 86.3573 229.927 89.8146 229.927H223.737C227.194 229.927 229.996 227.122 229.996 223.661V96.0104C229.996 92.5499 227.194 89.7446 223.737 89.7446Z" stroke="#1A1A1A"/>
</g>
<g filter="url(#filter2_di_950_709)">
<path fill-rule="evenodd" clip-rule="evenodd" d="M172.301 120.332C170.309 118.391 167.638 117.305 164.858 117.305C162.078 117.305 159.407 118.391 157.415 120.332L117.721 159.295C117.057 159.942 116.167 160.303 115.24 160.303C114.314 160.303 113.424 159.942 112.76 159.295C112.435 158.979 112.176 158.601 112 158.182C111.823 157.763 111.732 157.314 111.732 156.86C111.732 156.406 111.823 155.957 112 155.539C112.176 155.12 112.435 154.741 112.76 154.425L152.454 115.461C155.775 112.227 160.225 110.417 164.858 110.417C169.491 110.417 173.942 112.227 177.262 115.461C179.184 117.332 180.635 119.631 181.498 122.17C182.361 124.71 182.611 127.419 182.227 130.073C184.915 129.69 187.654 129.93 190.235 130.775C192.815 131.62 195.166 133.045 197.109 134.944L197.316 135.149C198.941 136.733 200.234 138.626 201.116 140.716C201.999 142.808 202.454 145.056 202.454 147.326C202.454 149.596 201.999 151.843 201.116 153.935C200.234 156.026 198.941 157.919 197.316 159.502L161.415 194.739C161.307 194.844 161.22 194.97 161.162 195.109C161.103 195.248 161.072 195.399 161.072 195.55C161.072 195.7 161.103 195.851 161.162 195.99C161.22 196.13 161.307 196.255 161.415 196.36L168.788 203.6C169.113 203.917 169.372 204.296 169.548 204.714C169.725 205.132 169.816 205.581 169.816 206.036C169.816 206.49 169.725 206.939 169.548 207.358C169.372 207.776 169.113 208.155 168.788 208.471C168.124 209.117 167.234 209.479 166.308 209.479C165.381 209.479 164.491 209.117 163.827 208.471L156.454 201.235C155.695 200.497 155.091 199.613 154.679 198.637C154.267 197.661 154.054 196.611 154.054 195.552C154.054 194.492 154.267 193.443 154.679 192.466C155.091 191.49 155.695 190.606 156.454 189.868L192.355 154.627C193.33 153.677 194.104 152.542 194.634 151.287C195.163 150.032 195.435 148.683 195.435 147.322C195.435 145.96 195.163 144.612 194.634 143.356C194.104 142.102 193.33 140.966 192.355 140.016L192.148 139.814C190.158 137.875 187.492 136.789 184.714 136.787C181.937 136.785 179.268 137.866 177.274 139.802L147.7 168.834L147.691 168.842L147.287 169.243C146.623 169.891 145.732 170.253 144.805 170.253C143.878 170.253 142.987 169.891 142.322 169.243C141.997 168.926 141.739 168.548 141.562 168.129C141.386 167.711 141.295 167.261 141.295 166.808C141.295 166.354 141.386 165.904 141.562 165.486C141.739 165.067 141.997 164.689 142.322 164.373L172.314 134.931C173.286 133.981 174.059 132.845 174.586 131.59C175.113 130.336 175.384 128.989 175.382 127.628C175.381 126.269 175.108 124.922 174.579 123.668C174.05 122.415 173.275 121.281 172.301 120.332Z" fill="white"/>
<path fill-rule="evenodd" clip-rule="evenodd" d="M167.34 130.071C167.665 129.754 167.924 129.375 168.1 128.958C168.277 128.539 168.368 128.09 168.368 127.636C168.368 127.181 168.277 126.732 168.1 126.313C167.924 125.896 167.665 125.517 167.34 125.2C166.676 124.553 165.785 124.19 164.858 124.19C163.931 124.19 163.04 124.553 162.375 125.2L133.019 154.018C131.393 155.602 130.101 157.494 129.218 159.586C128.336 161.677 127.881 163.925 127.881 166.195C127.881 168.465 128.336 170.712 129.218 172.803C130.101 174.895 131.393 176.788 133.019 178.37C136.34 181.604 140.79 183.413 145.423 183.413C150.056 183.413 154.506 181.604 157.827 178.37L187.187 149.552C187.513 149.236 187.772 148.858 187.948 148.439C188.124 148.021 188.215 147.571 188.215 147.117C188.215 146.664 188.124 146.213 187.948 145.796C187.772 145.377 187.513 144.999 187.187 144.683C186.523 144.035 185.633 143.673 184.705 143.673C183.778 143.673 182.887 144.035 182.222 144.683L152.866 173.501C150.874 175.441 148.203 176.527 145.423 176.527C142.643 176.527 139.972 175.441 137.98 173.501C137.005 172.55 136.23 171.414 135.701 170.16C135.171 168.905 134.899 167.557 134.899 166.195C134.899 164.832 135.171 163.484 135.701 162.23C136.23 160.974 137.005 159.839 137.98 158.889L167.34 130.071Z" fill="white"/>
</g>
<path opacity="0.5" d="M386 160L301.435 160L250 160" stroke="url(#paint0_linear_950_709)" stroke-width="2"/>
<path opacity="0.5" d="M386 111H346.821C343.355 111 340.544 111.528 340.544 112.179V123.888V131.821C340.544 132.472 337.734 133 334.267 133H250" stroke="url(#paint1_linear_950_709)" stroke-width="2"/>
<path opacity="0.5" d="M386 209H346.821C343.355 209 340.544 208.472 340.544 207.821V196.112V188.179C340.544 187.528 337.734 187 334.267 187H250" stroke="url(#paint2_linear_950_709)" stroke-width="2"/>
<path d="M573.667 99H395.26C391.803 99 389 101.805 389 105.266V116.753C389 120.213 391.803 123.019 395.26 123.019H573.667C577.124 123.019 579.927 120.213 579.927 116.753V105.266C579.927 101.805 577.124 99 573.667 99Z" fill="#0F0F0F"/>
<path d="M395.26 99.5H573.667C576.847 99.5002 579.427 102.081 579.427 105.266V116.753C579.427 119.938 576.847 122.518 573.667 122.519H395.26C392.079 122.518 389.5 119.938 389.5 116.753V105.266C389.5 102.081 392.079 99.5001 395.26 99.5Z" stroke="#636262" stroke-opacity="0.2"/>
<path d="M397.746 111.231C397.746 108.347 400.082 106.009 402.963 106.009C405.843 106.009 408.179 108.347 408.179 111.231C408.179 114.114 405.843 116.452 402.963 116.452C400.082 116.452 397.746 114.114 397.746 111.231Z" fill="#00C16A" fill-opacity="0.25"/>
<path d="M402.963 113.319C404.115 113.319 405.049 112.384 405.049 111.231C405.049 110.077 404.115 109.142 402.963 109.142C401.81 109.142 400.876 110.077 400.876 111.231C400.876 112.384 401.81 113.319 402.963 113.319Z" fill="#00C16A"/>
<path d="M417.185 105.873L414.373 116.322H413.452L416.265 105.873H417.185ZM419.383 106.282V115.009H418.377V106.282H419.383ZM421.225 115.009V108.464H422.231V115.009H421.225ZM421.737 107.373C421.54 107.373 421.371 107.306 421.229 107.173C421.09 107.039 421.021 106.879 421.021 106.691C421.021 106.504 421.09 106.343 421.229 106.21C421.371 106.076 421.54 106.009 421.737 106.009C421.933 106.009 422.1 106.076 422.239 106.21C422.381 106.343 422.452 106.504 422.452 106.691C422.452 106.879 422.381 107.039 422.239 107.173C422.1 107.306 421.933 107.373 421.737 107.373ZM428.709 109.93L427.806 110.185C427.749 110.035 427.665 109.889 427.554 109.746C427.446 109.602 427.299 109.482 427.111 109.389C426.924 109.295 426.684 109.248 426.391 109.248C425.99 109.248 425.657 109.34 425.39 109.525C425.125 109.707 424.993 109.938 424.993 110.22C424.993 110.47 425.084 110.667 425.266 110.812C425.448 110.957 425.732 111.077 426.118 111.174L427.09 111.413C427.675 111.555 428.111 111.772 428.398 112.065C428.685 112.354 428.828 112.728 428.828 113.185C428.828 113.56 428.721 113.896 428.505 114.191C428.292 114.487 427.993 114.72 427.61 114.89C427.226 115.06 426.78 115.146 426.272 115.146C425.604 115.146 425.051 115.001 424.614 114.711C424.176 114.421 423.9 113.998 423.783 113.441L424.738 113.202C424.828 113.555 425 113.819 425.253 113.995C425.509 114.171 425.843 114.259 426.255 114.259C426.723 114.259 427.096 114.16 427.371 113.961C427.65 113.759 427.789 113.518 427.789 113.237C427.789 113.009 427.709 112.819 427.55 112.666C427.391 112.509 427.147 112.393 426.817 112.316L425.726 112.06C425.127 111.918 424.686 111.698 424.405 111.4C424.127 111.099 423.988 110.722 423.988 110.271C423.988 109.901 424.091 109.575 424.299 109.291C424.509 109.006 424.794 108.783 425.155 108.621C425.519 108.46 425.931 108.379 426.391 108.379C427.039 108.379 427.547 108.521 427.917 108.805C428.289 109.089 428.553 109.464 428.709 109.93ZM433.189 108.464V109.316H429.797V108.464H433.189ZM430.786 106.896H431.791V113.134C431.791 113.418 431.832 113.631 431.915 113.773C432 113.913 432.108 114.006 432.239 114.055C432.372 114.1 432.513 114.123 432.661 114.123C432.771 114.123 432.862 114.117 432.933 114.106C433.004 114.092 433.061 114.08 433.104 114.072L433.308 114.975C433.24 115.001 433.145 115.026 433.023 115.052C432.901 115.08 432.746 115.095 432.558 115.095C432.274 115.095 431.996 115.033 431.723 114.911C431.453 114.789 431.229 114.603 431.05 114.353C430.874 114.103 430.786 113.788 430.786 113.407V106.896ZM438.217 110.799V111.737H434.399V110.799H438.217ZM439.987 117.464V108.464H440.958V109.504H441.078C441.152 109.39 441.254 109.245 441.385 109.069C441.518 108.89 441.708 108.731 441.956 108.592C442.206 108.45 442.544 108.379 442.97 108.379C443.521 108.379 444.007 108.516 444.427 108.792C444.848 109.068 445.176 109.458 445.412 109.964C445.647 110.47 445.765 111.066 445.765 111.754C445.765 112.447 445.647 113.048 445.412 113.556C445.176 114.062 444.849 114.454 444.431 114.732C444.014 115.008 443.532 115.146 442.987 115.146C442.566 115.146 442.23 115.076 441.977 114.937C441.724 114.795 441.529 114.634 441.393 114.455C441.257 114.273 441.152 114.123 441.078 114.004H440.993V117.464H439.987ZM440.975 111.737C440.975 112.231 441.048 112.667 441.193 113.045C441.338 113.42 441.549 113.714 441.828 113.927C442.106 114.137 442.447 114.242 442.85 114.242C443.271 114.242 443.622 114.131 443.903 113.91C444.187 113.685 444.4 113.384 444.542 113.006C444.687 112.626 444.76 112.202 444.76 111.737C444.76 111.276 444.689 110.862 444.547 110.492C444.407 110.12 444.196 109.826 443.912 109.61C443.63 109.391 443.277 109.282 442.85 109.282C442.441 109.282 442.098 109.386 441.819 109.593C441.541 109.798 441.331 110.085 441.189 110.454C441.047 110.82 440.975 111.248 440.975 111.737ZM449.225 115.163C448.811 115.163 448.434 115.085 448.096 114.928C447.758 114.769 447.49 114.541 447.291 114.242C447.092 113.941 446.993 113.577 446.993 113.151C446.993 112.776 447.066 112.472 447.214 112.239C447.362 112.004 447.559 111.819 447.806 111.685C448.054 111.552 448.326 111.452 448.625 111.387C448.926 111.319 449.228 111.265 449.532 111.225C449.93 111.174 450.252 111.136 450.5 111.11C450.75 111.082 450.931 111.035 451.045 110.97C451.162 110.904 451.22 110.791 451.22 110.629V110.595C451.22 110.174 451.105 109.847 450.875 109.614C450.647 109.381 450.302 109.265 449.839 109.265C449.359 109.265 448.983 109.37 448.71 109.58C448.437 109.791 448.245 110.015 448.135 110.254L447.18 109.913C447.35 109.515 447.578 109.205 447.862 108.984C448.149 108.759 448.461 108.603 448.799 108.515C449.14 108.424 449.475 108.379 449.805 108.379C450.015 108.379 450.257 108.404 450.529 108.455C450.805 108.504 451.071 108.604 451.326 108.758C451.585 108.911 451.799 109.143 451.97 109.452C452.14 109.762 452.225 110.177 452.225 110.697V115.009H451.22V114.123H451.169C451.1 114.265 450.987 114.417 450.828 114.579C450.669 114.741 450.457 114.879 450.193 114.992C449.929 115.106 449.606 115.163 449.225 115.163ZM449.379 114.259C449.777 114.259 450.112 114.181 450.385 114.025C450.66 113.869 450.868 113.667 451.007 113.42C451.149 113.173 451.22 112.913 451.22 112.64V111.72C451.177 111.771 451.083 111.818 450.939 111.86C450.797 111.9 450.632 111.935 450.444 111.967C450.26 111.995 450.079 112.021 449.903 112.043C449.73 112.063 449.589 112.08 449.481 112.095C449.22 112.129 448.975 112.184 448.748 112.261C448.524 112.335 448.342 112.447 448.203 112.597C448.066 112.745 447.998 112.947 447.998 113.202C447.998 113.552 448.127 113.816 448.386 113.995C448.647 114.171 448.978 114.259 449.379 114.259ZM456.703 117.6C456.217 117.6 455.8 117.538 455.45 117.413C455.101 117.291 454.81 117.129 454.577 116.927C454.347 116.728 454.163 116.515 454.027 116.288L454.828 115.725C454.919 115.845 455.034 115.981 455.173 116.134C455.313 116.291 455.503 116.425 455.744 116.539C455.989 116.656 456.308 116.714 456.703 116.714C457.232 116.714 457.668 116.586 458.011 116.33C458.355 116.075 458.527 115.674 458.527 115.129V113.799H458.442C458.368 113.918 458.263 114.066 458.126 114.242C457.993 114.416 457.8 114.57 457.547 114.707C457.297 114.84 456.959 114.907 456.533 114.907C456.004 114.907 455.53 114.782 455.109 114.532C454.692 114.282 454.361 113.918 454.116 113.441C453.875 112.964 453.754 112.384 453.754 111.702C453.754 111.032 453.872 110.448 454.108 109.951C454.344 109.451 454.672 109.065 455.092 108.792C455.513 108.516 455.999 108.379 456.55 108.379C456.976 108.379 457.314 108.45 457.564 108.592C457.817 108.731 458.01 108.89 458.143 109.069C458.28 109.245 458.385 109.39 458.459 109.504H458.561V108.464H459.533V115.197C459.533 115.759 459.405 116.217 459.149 116.569C458.896 116.924 458.555 117.184 458.126 117.349C457.7 117.516 457.226 117.6 456.703 117.6ZM456.669 114.004C457.072 114.004 457.413 113.911 457.692 113.727C457.97 113.542 458.182 113.276 458.327 112.93C458.472 112.583 458.544 112.168 458.544 111.685C458.544 111.214 458.473 110.798 458.331 110.437C458.189 110.076 457.979 109.793 457.7 109.589C457.422 109.384 457.078 109.282 456.669 109.282C456.243 109.282 455.888 109.39 455.604 109.606C455.322 109.822 455.111 110.112 454.969 110.475C454.83 110.839 454.76 111.242 454.76 111.685C454.76 112.14 454.831 112.542 454.973 112.891C455.118 113.238 455.331 113.511 455.612 113.71C455.896 113.906 456.249 114.004 456.669 114.004ZM464.118 115.146C463.487 115.146 462.943 115.006 462.486 114.728C462.031 114.447 461.68 114.055 461.433 113.552C461.189 113.046 461.067 112.458 461.067 111.788C461.067 111.117 461.189 110.526 461.433 110.015C461.68 109.501 462.024 109.1 462.464 108.813C462.908 108.523 463.425 108.379 464.016 108.379C464.357 108.379 464.693 108.435 465.026 108.549C465.358 108.663 465.661 108.847 465.933 109.103C466.206 109.356 466.423 109.691 466.585 110.109C466.747 110.526 466.828 111.041 466.828 111.651V112.077H461.783V111.208H465.805C465.805 110.839 465.732 110.509 465.584 110.22C465.439 109.93 465.232 109.701 464.962 109.533C464.695 109.366 464.379 109.282 464.016 109.282C463.615 109.282 463.268 109.381 462.976 109.58C462.686 109.776 462.463 110.032 462.307 110.347C462.151 110.663 462.072 111.001 462.072 111.362V111.941C462.072 112.435 462.158 112.854 462.328 113.198C462.501 113.539 462.741 113.799 463.048 113.978C463.355 114.154 463.712 114.242 464.118 114.242C464.382 114.242 464.621 114.205 464.834 114.131C465.05 114.055 465.236 113.941 465.392 113.791C465.548 113.637 465.669 113.447 465.754 113.22L466.726 113.492C466.624 113.822 466.452 114.112 466.21 114.362C465.969 114.609 465.67 114.802 465.315 114.941C464.96 115.077 464.561 115.146 464.118 115.146ZM472.994 109.93L472.091 110.185C472.034 110.035 471.95 109.889 471.839 109.746C471.732 109.602 471.584 109.482 471.396 109.389C471.209 109.295 470.969 109.248 470.676 109.248C470.276 109.248 469.942 109.34 469.675 109.525C469.411 109.707 469.278 109.938 469.278 110.22C469.278 110.47 469.369 110.667 469.551 110.812C469.733 110.957 470.017 111.077 470.403 111.174L471.375 111.413C471.96 111.555 472.396 111.772 472.683 112.065C472.97 112.354 473.114 112.728 473.114 113.185C473.114 113.56 473.006 113.896 472.79 114.191C472.577 114.487 472.278 114.72 471.895 114.89C471.511 115.06 471.065 115.146 470.557 115.146C469.889 115.146 469.337 115.001 468.899 114.711C468.462 114.421 468.185 113.998 468.068 113.441L469.023 113.202C469.114 113.555 469.286 113.819 469.538 113.995C469.794 114.171 470.128 114.259 470.54 114.259C471.009 114.259 471.381 114.16 471.656 113.961C471.935 113.759 472.074 113.518 472.074 113.237C472.074 113.009 471.994 112.819 471.835 112.666C471.676 112.509 471.432 112.393 471.102 112.316L470.011 112.06C469.412 111.918 468.972 111.698 468.69 111.4C468.412 111.099 468.273 110.722 468.273 110.271C468.273 109.901 468.376 109.575 468.584 109.291C468.794 109.006 469.08 108.783 469.44 108.621C469.804 108.46 470.216 108.379 470.676 108.379C471.324 108.379 471.832 108.521 472.202 108.805C472.574 109.089 472.838 109.464 472.994 109.93Z" fill="#737373"/>
<path d="M573.667 148.019H395.26C391.803 148.019 389 150.824 389 154.284V165.771C389 169.232 391.803 172.037 395.26 172.037H573.667C577.124 172.037 579.927 169.232 579.927 165.771V154.284C579.927 150.824 577.124 148.019 573.667 148.019Z" fill="#0F0F0F"/>
<path d="M395.26 148.519H573.667C576.847 148.519 579.427 151.1 579.427 154.284V165.771C579.427 168.956 576.847 171.537 573.667 171.537H395.26C392.079 171.537 389.5 168.956 389.5 165.771V154.284C389.5 151.1 392.079 148.519 395.26 148.519Z" stroke="#636262" stroke-opacity="0.2"/>
<path d="M397.746 160.249C397.746 157.366 400.082 155.028 402.963 155.028C405.843 155.028 408.179 157.366 408.179 160.249C408.179 163.133 405.843 165.471 402.963 165.471C400.082 165.471 397.746 163.133 397.746 160.249Z" fill="#00C16A" fill-opacity="0.25"/>
<path d="M402.963 162.338C404.115 162.338 405.049 161.403 405.049 160.249C405.049 159.096 404.115 158.161 402.963 158.161C401.81 158.161 400.876 159.096 400.876 160.249C400.876 161.403 401.81 162.338 402.963 162.338Z" fill="#00C16A"/>
<path d="M417.185 154.891L414.373 165.34H413.452L416.265 154.891H417.185ZM421.02 166.619C420.534 166.619 420.116 166.556 419.767 166.431C419.417 166.309 419.126 166.147 418.893 165.945C418.663 165.747 418.48 165.534 418.343 165.306L419.145 164.744C419.235 164.863 419.35 164.999 419.49 165.153C419.629 165.309 419.819 165.444 420.061 165.558C420.305 165.674 420.625 165.732 421.02 165.732C421.548 165.732 421.984 165.605 422.328 165.349C422.672 165.093 422.843 164.693 422.843 164.147V162.818H422.758C422.684 162.937 422.579 163.085 422.443 163.261C422.309 163.434 422.116 163.589 421.863 163.725C421.613 163.859 421.275 163.926 420.849 163.926C420.321 163.926 419.846 163.801 419.426 163.551C419.008 163.301 418.677 162.937 418.433 162.46C418.191 161.982 418.071 161.403 418.071 160.721C418.071 160.051 418.189 159.467 418.424 158.97C418.66 158.47 418.988 158.083 419.409 157.811C419.829 157.535 420.315 157.397 420.866 157.397C421.292 157.397 421.63 157.468 421.88 157.61C422.133 157.749 422.326 157.909 422.46 158.087C422.596 158.264 422.701 158.409 422.775 158.522H422.877V157.482H423.849V164.215C423.849 164.778 423.721 165.235 423.466 165.587C423.213 165.943 422.872 166.203 422.443 166.367C422.017 166.535 421.542 166.619 421.02 166.619ZM420.985 163.022C421.389 163.022 421.73 162.93 422.008 162.745C422.287 162.561 422.498 162.295 422.643 161.948C422.788 161.602 422.86 161.187 422.86 160.704C422.86 160.232 422.789 159.816 422.647 159.455C422.505 159.095 422.295 158.812 422.017 158.607C421.738 158.403 421.395 158.301 420.985 158.301C420.559 158.301 420.204 158.409 419.92 158.624C419.639 158.84 419.427 159.13 419.285 159.494C419.146 159.857 419.076 160.261 419.076 160.704C419.076 161.159 419.147 161.561 419.289 161.91C419.434 162.257 419.647 162.529 419.929 162.728C420.213 162.924 420.565 163.022 420.985 163.022ZM428.434 164.164C427.804 164.164 427.26 164.025 426.802 163.747C426.348 163.465 425.997 163.073 425.75 162.57C425.505 162.065 425.383 161.477 425.383 160.806C425.383 160.136 425.505 159.545 425.75 159.034C425.997 158.519 426.341 158.119 426.781 157.832C427.224 157.542 427.741 157.397 428.332 157.397C428.673 157.397 429.01 157.454 429.342 157.568C429.674 157.681 429.977 157.866 430.25 158.122C430.522 158.374 430.74 158.71 430.902 159.127C431.064 159.545 431.145 160.059 431.145 160.67V161.096H426.099V160.227H430.122C430.122 159.857 430.048 159.528 429.9 159.238C429.755 158.948 429.548 158.72 429.278 158.552C429.011 158.384 428.696 158.301 428.332 158.301C427.931 158.301 427.585 158.4 427.292 158.599C427.002 158.795 426.779 159.051 426.623 159.366C426.467 159.681 426.389 160.019 426.389 160.38V160.96C426.389 161.454 426.474 161.873 426.645 162.217C426.818 162.558 427.058 162.818 427.365 162.997C427.672 163.173 428.028 163.261 428.434 163.261C428.699 163.261 428.937 163.224 429.15 163.15C429.366 163.073 429.552 162.96 429.708 162.809C429.865 162.656 429.985 162.465 430.071 162.238L431.042 162.511C430.94 162.84 430.768 163.13 430.527 163.38C430.285 163.627 429.987 163.82 429.632 163.96C429.277 164.096 428.877 164.164 428.434 164.164ZM435.521 157.482V158.335H432.129V157.482H435.521ZM433.118 155.914H434.123V162.153C434.123 162.437 434.164 162.65 434.247 162.792C434.332 162.931 434.44 163.025 434.571 163.073C434.704 163.119 434.845 163.141 434.993 163.141C435.103 163.141 435.194 163.136 435.265 163.124C435.336 163.11 435.393 163.099 435.436 163.09L435.64 163.994C435.572 164.019 435.477 164.045 435.355 164.07C435.233 164.099 435.078 164.113 434.89 164.113C434.606 164.113 434.328 164.052 434.055 163.93C433.785 163.808 433.561 163.622 433.382 163.372C433.206 163.122 433.118 162.806 433.118 162.426V155.914ZM440.549 159.818V160.755H436.731V159.818H440.549ZM442.319 166.482V157.482H443.29V158.522H443.41C443.484 158.409 443.586 158.264 443.717 158.087C443.85 157.909 444.04 157.749 444.288 157.61C444.538 157.468 444.876 157.397 445.302 157.397C445.853 157.397 446.339 157.535 446.759 157.811C447.18 158.086 447.508 158.477 447.744 158.982C447.979 159.488 448.097 160.085 448.097 160.772C448.097 161.465 447.979 162.066 447.744 162.575C447.508 163.08 447.181 163.472 446.763 163.751C446.346 164.026 445.864 164.164 445.319 164.164C444.898 164.164 444.562 164.095 444.309 163.955C444.056 163.813 443.862 163.653 443.725 163.474C443.589 163.292 443.484 163.141 443.41 163.022H443.325V166.482H442.319ZM443.308 160.755C443.308 161.249 443.38 161.686 443.525 162.063C443.67 162.438 443.881 162.732 444.16 162.945C444.438 163.156 444.779 163.261 445.183 163.261C445.603 163.261 445.954 163.15 446.235 162.928C446.519 162.704 446.732 162.403 446.874 162.025C447.019 161.644 447.092 161.221 447.092 160.755C447.092 160.295 447.021 159.88 446.879 159.511C446.739 159.139 446.528 158.845 446.244 158.629C445.962 158.41 445.609 158.301 445.183 158.301C444.773 158.301 444.43 158.404 444.151 158.612C443.873 158.816 443.663 159.103 443.521 159.472C443.379 159.839 443.308 160.266 443.308 160.755ZM451.558 164.181C451.143 164.181 450.766 164.103 450.428 163.947C450.09 163.788 449.822 163.559 449.623 163.261C449.424 162.96 449.325 162.596 449.325 162.17C449.325 161.795 449.398 161.491 449.546 161.258C449.694 161.022 449.891 160.837 450.138 160.704C450.386 160.57 450.658 160.471 450.957 160.406C451.258 160.337 451.56 160.284 451.864 160.244C452.262 160.193 452.585 160.154 452.832 160.129C453.082 160.1 453.263 160.053 453.377 159.988C453.494 159.923 453.552 159.809 453.552 159.647V159.613C453.552 159.193 453.437 158.866 453.207 158.633C452.979 158.4 452.634 158.284 452.171 158.284C451.691 158.284 451.315 158.389 451.042 158.599C450.769 158.809 450.577 159.034 450.467 159.272L449.512 158.931C449.683 158.534 449.91 158.224 450.194 158.002C450.481 157.778 450.793 157.622 451.131 157.534C451.472 157.443 451.808 157.397 452.137 157.397C452.347 157.397 452.589 157.423 452.862 157.474C453.137 157.522 453.403 157.623 453.658 157.776C453.917 157.93 454.131 158.161 454.302 158.471C454.472 158.781 454.558 159.195 454.558 159.715V164.028H453.552V163.141H453.501C453.433 163.284 453.319 163.436 453.16 163.597C453.001 163.759 452.789 163.897 452.525 164.011C452.261 164.124 451.938 164.181 451.558 164.181ZM451.711 163.278C452.109 163.278 452.444 163.2 452.717 163.043C452.992 162.887 453.2 162.686 453.339 162.438C453.481 162.191 453.552 161.931 453.552 161.659V160.738C453.509 160.789 453.415 160.836 453.271 160.879C453.129 160.918 452.964 160.954 452.776 160.985C452.592 161.014 452.411 161.039 452.235 161.062C452.062 161.082 451.921 161.099 451.813 161.113C451.552 161.147 451.308 161.203 451.08 161.279C450.856 161.353 450.674 161.465 450.535 161.616C450.398 161.764 450.33 161.965 450.33 162.221C450.33 162.57 450.46 162.835 450.718 163.014C450.979 163.19 451.31 163.278 451.711 163.278ZM459.035 166.619C458.549 166.619 458.132 166.556 457.782 166.431C457.433 166.309 457.142 166.147 456.909 165.945C456.679 165.747 456.495 165.534 456.359 165.306L457.16 164.744C457.251 164.863 457.366 164.999 457.505 165.153C457.645 165.309 457.835 165.444 458.076 165.558C458.321 165.674 458.64 165.732 459.035 165.732C459.564 165.732 460 165.605 460.343 165.349C460.687 165.093 460.859 164.693 460.859 164.147V162.818H460.774C460.7 162.937 460.595 163.085 460.458 163.261C460.325 163.434 460.132 163.589 459.879 163.725C459.629 163.859 459.291 163.926 458.865 163.926C458.336 163.926 457.862 163.801 457.441 163.551C457.024 163.301 456.693 162.937 456.449 162.46C456.207 161.982 456.086 161.403 456.086 160.721C456.086 160.051 456.204 159.467 456.44 158.97C456.676 158.47 457.004 158.083 457.424 157.811C457.845 157.535 458.331 157.397 458.882 157.397C459.308 157.397 459.646 157.468 459.896 157.61C460.149 157.749 460.342 157.909 460.475 158.087C460.612 158.264 460.717 158.409 460.791 158.522H460.893V157.482H461.865V164.215C461.865 164.778 461.737 165.235 461.481 165.587C461.228 165.943 460.887 166.203 460.458 166.367C460.032 166.535 459.558 166.619 459.035 166.619ZM459.001 163.022C459.404 163.022 459.745 162.93 460.024 162.745C460.302 162.561 460.514 162.295 460.659 161.948C460.804 161.602 460.876 161.187 460.876 160.704C460.876 160.232 460.805 159.816 460.663 159.455C460.521 159.095 460.311 158.812 460.032 158.607C459.754 158.403 459.41 158.301 459.001 158.301C458.575 158.301 458.22 158.409 457.936 158.624C457.654 158.84 457.443 159.13 457.301 159.494C457.162 159.857 457.092 160.261 457.092 160.704C457.092 161.159 457.163 161.561 457.305 161.91C457.45 162.257 457.663 162.529 457.944 162.728C458.228 162.924 458.581 163.022 459.001 163.022ZM466.45 164.164C465.819 164.164 465.275 164.025 464.818 163.747C464.363 163.465 464.012 163.073 463.765 162.57C463.521 162.065 463.399 161.477 463.399 160.806C463.399 160.136 463.521 159.545 463.765 159.034C464.012 158.519 464.356 158.119 464.797 157.832C465.24 157.542 465.757 157.397 466.348 157.397C466.689 157.397 467.025 157.454 467.358 157.568C467.69 157.681 467.993 157.866 468.265 158.122C468.538 158.374 468.755 158.71 468.917 159.127C469.079 159.545 469.16 160.059 469.16 160.67V161.096H464.115V160.227H468.137C468.137 159.857 468.064 159.528 467.916 159.238C467.771 158.948 467.564 158.72 467.294 158.552C467.027 158.384 466.711 158.301 466.348 158.301C465.947 158.301 465.6 158.4 465.308 158.599C465.018 158.795 464.795 159.051 464.639 159.366C464.483 159.681 464.404 160.019 464.404 160.38V160.96C464.404 161.454 464.49 161.873 464.66 162.217C464.833 162.558 465.074 162.818 465.38 162.997C465.687 163.173 466.044 163.261 466.45 163.261C466.714 163.261 466.953 163.224 467.166 163.15C467.382 163.073 467.568 162.96 467.724 162.809C467.88 162.656 468.001 162.465 468.086 162.238L469.058 162.511C468.956 162.84 468.784 163.13 468.542 163.38C468.301 163.627 468.002 163.82 467.647 163.96C467.292 164.096 466.893 164.164 466.45 164.164Z" fill="#737373"/>
<path d="M573.667 197.037H395.26C391.803 197.037 389 199.842 389 203.303V214.79C389 218.25 391.803 221.056 395.26 221.056H573.667C577.124 221.056 579.927 218.25 579.927 214.79V203.303C579.927 199.842 577.124 197.037 573.667 197.037Z" fill="#0F0F0F"/>
<path d="M395.26 197.537H573.667C576.847 197.537 579.427 200.118 579.427 203.303V214.79C579.427 217.975 576.847 220.555 573.667 220.556H395.26C392.079 220.556 389.5 217.975 389.5 214.79V203.303C389.5 200.118 392.079 197.537 395.26 197.537Z" stroke="#636262" stroke-opacity="0.2"/>
<path d="M397.746 209.268C397.746 206.385 400.082 204.046 402.963 204.046C405.843 204.046 408.179 206.385 408.179 209.268C408.179 212.151 405.843 214.489 402.963 214.489C400.082 214.489 397.746 212.151 397.746 209.268Z" fill="#00C16A" fill-opacity="0.25"/>
<path d="M402.963 211.356C404.115 211.356 405.049 210.421 405.049 209.268C405.049 208.114 404.115 207.179 402.963 207.179C401.81 207.179 400.876 208.114 400.876 209.268C400.876 210.421 401.81 211.356 402.963 211.356Z" fill="#00C16A"/>
<path d="M417.185 203.91L414.373 214.359H413.452L416.265 203.91H417.185ZM421.02 215.637C420.534 215.637 420.116 215.575 419.767 215.45C419.417 215.328 419.126 215.166 418.893 214.964C418.663 214.765 418.48 214.552 418.343 214.325L419.145 213.762C419.235 213.882 419.35 214.018 419.49 214.171C419.629 214.328 419.819 214.463 420.061 214.576C420.305 214.693 420.625 214.751 421.02 214.751C421.548 214.751 421.984 214.623 422.328 214.367C422.672 214.112 422.843 213.711 422.843 213.166V211.836H422.758C422.684 211.955 422.579 212.103 422.443 212.279C422.309 212.453 422.116 212.607 421.863 212.744C421.613 212.877 421.275 212.944 420.849 212.944C420.321 212.944 419.846 212.819 419.426 212.569C419.008 212.319 418.677 211.955 418.433 211.478C418.191 211.001 418.071 210.421 418.071 209.74C418.071 209.069 418.189 208.485 418.424 207.988C418.66 207.488 418.988 207.102 419.409 206.829C419.829 206.553 420.315 206.416 420.866 206.416C421.292 206.416 421.63 206.487 421.88 206.629C422.133 206.768 422.326 206.927 422.46 207.106C422.596 207.282 422.701 207.427 422.775 207.541H422.877V206.501H423.849V213.234C423.849 213.796 423.721 214.254 423.466 214.606C423.213 214.961 422.872 215.221 422.443 215.386C422.017 215.553 421.542 215.637 421.02 215.637ZM420.985 212.041C421.389 212.041 421.73 211.948 422.008 211.764C422.287 211.579 422.498 211.313 422.643 210.967C422.788 210.62 422.86 210.205 422.86 209.723C422.86 209.251 422.789 208.835 422.647 208.474C422.505 208.113 422.295 207.83 422.017 207.626C421.738 207.421 421.395 207.319 420.985 207.319C420.559 207.319 420.204 207.427 419.92 207.643C419.639 207.859 419.427 208.149 419.285 208.512C419.146 208.876 419.076 209.279 419.076 209.723C419.076 210.177 419.147 210.579 419.289 210.928C419.434 211.275 419.647 211.548 419.929 211.747C420.213 211.943 420.565 212.041 420.985 212.041ZM428.434 213.183C427.804 213.183 427.26 213.044 426.802 212.765C426.348 212.484 425.997 212.092 425.75 211.589C425.505 211.083 425.383 210.495 425.383 209.825C425.383 209.154 425.505 208.563 425.75 208.052C425.997 207.538 426.341 207.137 426.781 206.85C427.224 206.561 427.741 206.416 428.332 206.416C428.673 206.416 429.01 206.473 429.342 206.586C429.674 206.7 429.977 206.884 430.25 207.14C430.522 207.393 430.74 207.728 430.902 208.146C431.064 208.563 431.145 209.078 431.145 209.688V210.115H426.099V209.245H430.122C430.122 208.876 430.048 208.546 429.9 208.257C429.755 207.967 429.548 207.738 429.278 207.571C429.011 207.403 428.696 207.319 428.332 207.319C427.931 207.319 427.585 207.419 427.292 207.617C427.002 207.813 426.779 208.069 426.623 208.384C426.467 208.7 426.389 209.038 426.389 209.399V209.978C426.389 210.473 426.474 210.892 426.645 211.235C426.818 211.576 427.058 211.836 427.365 212.015C427.672 212.191 428.028 212.279 428.434 212.279C428.699 212.279 428.937 212.242 429.15 212.169C429.366 212.092 429.552 211.978 429.708 211.828C429.865 211.674 429.985 211.484 430.071 211.257L431.042 211.529C430.94 211.859 430.768 212.149 430.527 212.399C430.285 212.646 429.987 212.839 429.632 212.978C429.277 213.115 428.877 213.183 428.434 213.183ZM435.521 206.501V207.353H432.129V206.501H435.521ZM433.118 204.933H434.123V211.171C434.123 211.455 434.164 211.669 434.247 211.811C434.332 211.95 434.44 212.044 434.571 212.092C434.704 212.137 434.845 212.16 434.993 212.16C435.103 212.16 435.194 212.154 435.265 212.143C435.336 212.129 435.393 212.117 435.436 212.109L435.64 213.012C435.572 213.038 435.477 213.063 435.355 213.089C435.233 213.117 435.078 213.132 434.89 213.132C434.606 213.132 434.328 213.071 434.055 212.948C433.785 212.826 433.561 212.64 433.382 212.39C433.206 212.14 433.118 211.825 433.118 211.444V204.933ZM440.549 208.836V209.774H436.731V208.836H440.549ZM442.319 213.046V206.501H443.29V207.524H443.376C443.512 207.174 443.732 206.903 444.036 206.71C444.34 206.514 444.705 206.416 445.131 206.416C445.563 206.416 445.923 206.514 446.21 206.71C446.499 206.903 446.725 207.174 446.887 207.524H446.955C447.123 207.186 447.374 206.917 447.71 206.718C448.045 206.517 448.447 206.416 448.915 206.416C449.501 206.416 449.979 206.599 450.352 206.965C450.724 207.329 450.91 207.896 450.91 208.666V213.046H449.904V208.666C449.904 208.183 449.772 207.838 449.508 207.63C449.244 207.423 448.933 207.319 448.575 207.319C448.114 207.319 447.758 207.458 447.505 207.737C447.252 208.012 447.126 208.362 447.126 208.785V213.046H446.103V208.563C446.103 208.191 445.982 207.892 445.741 207.664C445.499 207.434 445.188 207.319 444.808 207.319C444.546 207.319 444.302 207.389 444.075 207.528C443.85 207.667 443.668 207.86 443.529 208.107C443.393 208.352 443.325 208.634 443.325 208.955V213.046H442.319ZM452.749 213.046V206.501H453.754V213.046H452.749ZM453.26 205.41C453.064 205.41 452.895 205.343 452.753 205.21C452.614 205.076 452.544 204.916 452.544 204.728C452.544 204.541 452.614 204.38 452.753 204.247C452.895 204.113 453.064 204.046 453.26 204.046C453.456 204.046 453.624 204.113 453.763 204.247C453.905 204.38 453.976 204.541 453.976 204.728C453.976 204.916 453.905 205.076 453.763 205.21C453.624 205.343 453.456 205.41 453.26 205.41ZM458.238 215.637C457.752 215.637 457.335 215.575 456.985 215.45C456.636 215.328 456.345 215.166 456.112 214.964C455.882 214.765 455.699 214.552 455.562 214.325L456.363 213.762C456.454 213.882 456.569 214.018 456.708 214.171C456.848 214.328 457.038 214.463 457.279 214.576C457.524 214.693 457.843 214.751 458.238 214.751C458.767 214.751 459.203 214.623 459.547 214.367C459.89 214.112 460.062 213.711 460.062 213.166V211.836H459.977C459.903 211.955 459.798 212.103 459.662 212.279C459.528 212.453 459.335 212.607 459.082 212.744C458.832 212.877 458.494 212.944 458.068 212.944C457.539 212.944 457.065 212.819 456.645 212.569C456.227 212.319 455.896 211.955 455.652 211.478C455.41 211.001 455.289 210.421 455.289 209.74C455.289 209.069 455.407 208.485 455.643 207.988C455.879 207.488 456.207 207.102 456.627 206.829C457.048 206.553 457.534 206.416 458.085 206.416C458.511 206.416 458.849 206.487 459.099 206.629C459.352 206.768 459.545 206.927 459.679 207.106C459.815 207.282 459.92 207.427 459.994 207.541H460.096V206.501H461.068V213.234C461.068 213.796 460.94 214.254 460.684 214.606C460.431 214.961 460.091 215.221 459.662 215.386C459.235 215.553 458.761 215.637 458.238 215.637ZM458.204 212.041C458.608 212.041 458.949 211.948 459.227 211.764C459.505 211.579 459.717 211.313 459.862 210.967C460.007 210.62 460.079 210.205 460.079 209.723C460.079 209.251 460.008 208.835 459.866 208.474C459.724 208.113 459.514 207.83 459.235 207.626C458.957 207.421 458.613 207.319 458.204 207.319C457.778 207.319 457.423 207.427 457.139 207.643C456.858 207.859 456.646 208.149 456.504 208.512C456.365 208.876 456.295 209.279 456.295 209.723C456.295 210.177 456.366 210.579 456.508 210.928C456.653 211.275 456.866 211.548 457.147 211.747C457.431 211.943 457.784 212.041 458.204 212.041ZM462.909 213.046V206.501H463.88V207.49H463.949C464.068 207.166 464.284 206.903 464.596 206.701C464.909 206.5 465.261 206.399 465.653 206.399C465.727 206.399 465.819 206.4 465.93 206.403C466.041 206.406 466.125 206.41 466.181 206.416V207.438C466.147 207.43 466.069 207.417 465.947 207.4C465.828 207.38 465.701 207.37 465.568 207.37C465.25 207.37 464.966 207.437 464.716 207.571C464.468 207.701 464.272 207.883 464.127 208.116C463.985 208.346 463.914 208.609 463.914 208.904V213.046H462.909ZM469.3 213.2C468.885 213.2 468.509 213.122 468.17 212.965C467.832 212.806 467.564 212.578 467.365 212.279C467.166 211.978 467.067 211.615 467.067 211.188C467.067 210.813 467.141 210.509 467.288 210.277C467.436 210.041 467.634 209.856 467.881 209.723C468.128 209.589 468.401 209.49 468.699 209.424C469 209.356 469.303 209.302 469.607 209.262C470.004 209.211 470.327 209.173 470.574 209.147C470.824 209.119 471.006 209.072 471.119 209.007C471.236 208.941 471.294 208.828 471.294 208.666V208.632C471.294 208.211 471.179 207.884 470.949 207.652C470.722 207.419 470.376 207.302 469.913 207.302C469.433 207.302 469.057 207.407 468.784 207.617C468.511 207.828 468.32 208.052 468.209 208.291L467.254 207.95C467.425 207.552 467.652 207.242 467.936 207.021C468.223 206.796 468.536 206.64 468.874 206.552C469.214 206.461 469.55 206.416 469.879 206.416C470.089 206.416 470.331 206.441 470.604 206.492C470.879 206.541 471.145 206.642 471.401 206.795C471.659 206.948 471.874 207.18 472.044 207.49C472.214 207.799 472.3 208.214 472.3 208.734V213.046H471.294V212.16H471.243C471.175 212.302 471.061 212.454 470.902 212.616C470.743 212.778 470.531 212.916 470.267 213.029C470.003 213.143 469.68 213.2 469.3 213.2ZM469.453 212.296C469.851 212.296 470.186 212.218 470.459 212.062C470.734 211.906 470.942 211.704 471.081 211.457C471.223 211.21 471.294 210.95 471.294 210.677V209.757C471.251 209.808 471.158 209.855 471.013 209.897C470.871 209.937 470.706 209.973 470.518 210.004C470.334 210.032 470.153 210.058 469.977 210.08C469.804 210.1 469.663 210.117 469.555 210.132C469.294 210.166 469.05 210.221 468.822 210.298C468.598 210.372 468.416 210.484 468.277 210.634C468.141 210.782 468.072 210.984 468.072 211.24C468.072 211.589 468.202 211.853 468.46 212.032C468.722 212.208 469.053 212.296 469.453 212.296ZM476.982 206.501V207.353H473.59V206.501H476.982ZM474.578 204.933H475.584V211.171C475.584 211.455 475.625 211.669 475.708 211.811C475.793 211.95 475.901 212.044 476.032 212.092C476.165 212.137 476.306 212.16 476.453 212.16C476.564 212.16 476.655 212.154 476.726 212.143C476.797 212.129 476.854 212.117 476.897 212.109L477.101 213.012C477.033 213.038 476.938 213.063 476.816 213.089C476.694 213.117 476.539 213.132 476.351 213.132C476.067 213.132 475.789 213.071 475.516 212.948C475.246 212.826 475.022 212.64 474.843 212.39C474.667 212.14 474.578 211.825 474.578 211.444V204.933ZM478.495 213.046V206.501H479.5V213.046H478.495ZM479.006 205.41C478.81 205.41 478.641 205.343 478.499 205.21C478.36 205.076 478.29 204.916 478.29 204.728C478.29 204.541 478.36 204.38 478.499 204.247C478.641 204.113 478.81 204.046 479.006 204.046C479.202 204.046 479.37 204.113 479.509 204.247C479.651 204.38 479.722 204.541 479.722 204.728C479.722 204.916 479.651 205.076 479.509 205.21C479.37 205.343 479.202 205.41 479.006 205.41ZM484.001 213.183C483.411 213.183 482.892 213.042 482.446 212.761C482.003 212.48 481.656 212.086 481.406 211.58C481.159 211.075 481.036 210.484 481.036 209.808C481.036 209.126 481.159 208.531 481.406 208.022C481.656 207.514 482.003 207.119 482.446 206.838C482.892 206.556 483.411 206.416 484.001 206.416C484.592 206.416 485.109 206.556 485.553 206.838C485.999 207.119 486.345 207.514 486.592 208.022C486.842 208.531 486.967 209.126 486.967 209.808C486.967 210.484 486.842 211.075 486.592 211.58C486.345 212.086 485.999 212.48 485.553 212.761C485.109 213.042 484.592 213.183 484.001 213.183ZM484.001 212.279C484.45 212.279 484.82 212.164 485.109 211.934C485.399 211.704 485.614 211.402 485.753 211.027C485.892 210.652 485.962 210.245 485.962 209.808C485.962 209.37 485.892 208.963 485.753 208.585C485.614 208.207 485.399 207.902 485.109 207.669C484.82 207.436 484.45 207.319 484.001 207.319C483.553 207.319 483.183 207.436 482.893 207.669C482.604 207.902 482.389 208.207 482.25 208.585C482.111 208.963 482.041 209.37 482.041 209.808C482.041 210.245 482.111 210.652 482.25 211.027C482.389 211.402 482.604 211.704 482.893 211.934C483.183 212.164 483.553 212.279 484.001 212.279ZM489.508 209.109V213.046H488.502V206.501H489.474V207.524H489.559C489.713 207.191 489.946 206.924 490.258 206.723C490.571 206.518 490.974 206.416 491.468 206.416C491.912 206.416 492.299 206.507 492.632 206.688C492.964 206.867 493.223 207.14 493.407 207.507C493.592 207.87 493.684 208.33 493.684 208.887V213.046H492.679V208.955C492.679 208.441 492.545 208.041 492.278 207.754C492.011 207.464 491.645 207.319 491.179 207.319C490.858 207.319 490.571 207.389 490.318 207.528C490.068 207.667 489.87 207.87 489.725 208.137C489.581 208.404 489.508 208.728 489.508 209.109ZM499.272 208.836V209.774H495.454V208.836H499.272ZM503.684 215.637C503.198 215.637 502.78 215.575 502.431 215.45C502.081 215.328 501.79 215.166 501.557 214.964C501.327 214.765 501.144 214.552 501.007 214.325L501.809 213.762C501.9 213.882 502.015 214.018 502.154 214.171C502.293 214.328 502.483 214.463 502.725 214.576C502.969 214.693 503.289 214.751 503.684 214.751C504.212 214.751 504.648 214.623 504.992 214.367C505.336 214.112 505.507 213.711 505.507 213.166V211.836H505.422C505.348 211.955 505.243 212.103 505.107 212.279C504.973 212.453 504.78 212.607 504.527 212.744C504.277 212.877 503.939 212.944 503.513 212.944C502.985 212.944 502.51 212.819 502.09 212.569C501.672 212.319 501.341 211.955 501.097 211.478C500.855 211.001 500.735 210.421 500.735 209.74C500.735 209.069 500.853 208.485 501.088 207.988C501.324 207.488 501.652 207.102 502.073 206.829C502.493 206.553 502.979 206.416 503.53 206.416C503.956 206.416 504.294 206.487 504.544 206.629C504.797 206.768 504.99 206.927 505.124 207.106C505.26 207.282 505.365 207.427 505.439 207.541H505.542V206.501H506.513V213.234C506.513 213.796 506.385 214.254 506.13 214.606C505.877 214.961 505.536 215.221 505.107 215.386C504.681 215.553 504.206 215.637 503.684 215.637ZM503.65 212.041C504.053 212.041 504.394 211.948 504.672 211.764C504.951 211.579 505.162 211.313 505.307 210.967C505.452 210.62 505.525 210.205 505.525 209.723C505.525 209.251 505.453 208.835 505.311 208.474C505.169 208.113 504.959 207.83 504.681 207.626C504.402 207.421 504.059 207.319 503.65 207.319C503.223 207.319 502.868 207.427 502.584 207.643C502.303 207.859 502.091 208.149 501.949 208.512C501.81 208.876 501.74 209.279 501.74 209.723C501.74 210.177 501.811 210.579 501.953 210.928C502.098 211.275 502.311 211.548 502.593 211.747C502.877 211.943 503.229 212.041 503.65 212.041ZM512.479 210.37V206.501H513.485V213.046H512.479V211.938H512.411C512.257 212.271 512.019 212.553 511.695 212.786C511.371 213.017 510.962 213.132 510.468 213.132C510.059 213.132 509.695 213.042 509.377 212.863C509.059 212.681 508.809 212.409 508.627 212.045C508.445 211.678 508.354 211.217 508.354 210.66V206.501H509.36V210.592C509.36 211.069 509.493 211.45 509.76 211.734C510.03 212.018 510.374 212.16 510.792 212.16C511.042 212.16 511.296 212.096 511.554 211.968C511.816 211.84 512.034 211.644 512.211 211.38C512.39 211.116 512.479 210.779 512.479 210.37ZM515.327 213.046V206.501H516.332V213.046H515.327ZM515.838 205.41C515.642 205.41 515.473 205.343 515.331 205.21C515.192 205.076 515.122 204.916 515.122 204.728C515.122 204.541 515.192 204.38 515.331 204.247C515.473 204.113 515.642 204.046 515.838 204.046C516.034 204.046 516.202 204.113 516.341 204.247C516.483 204.38 516.554 204.541 516.554 204.728C516.554 204.916 516.483 205.076 516.341 205.21C516.202 205.343 516.034 205.41 515.838 205.41ZM520.646 213.183C520.1 213.183 519.619 213.045 519.201 212.769C518.784 212.491 518.457 212.099 518.221 211.593C517.985 211.085 517.868 210.484 517.868 209.791C517.868 209.103 517.985 208.507 518.221 208.001C518.457 207.495 518.785 207.105 519.206 206.829C519.626 206.553 520.112 206.416 520.663 206.416C521.089 206.416 521.426 206.487 521.673 206.629C521.923 206.768 522.113 206.927 522.244 207.106C522.377 207.282 522.481 207.427 522.555 207.541H522.64V204.319H523.646V213.046H522.674V212.041H522.555C522.481 212.16 522.376 212.311 522.24 212.492C522.103 212.671 521.909 212.832 521.656 212.974C521.403 213.113 521.066 213.183 520.646 213.183ZM520.782 212.279C521.186 212.279 521.527 212.174 521.805 211.964C522.083 211.751 522.295 211.457 522.44 211.082C522.585 210.704 522.657 210.268 522.657 209.774C522.657 209.285 522.586 208.857 522.444 208.491C522.302 208.122 522.092 207.835 521.814 207.63C521.535 207.423 521.191 207.319 520.782 207.319C520.356 207.319 520.001 207.428 519.717 207.647C519.436 207.863 519.224 208.157 519.082 208.529C518.943 208.899 518.873 209.313 518.873 209.774C518.873 210.24 518.944 210.663 519.086 211.044C519.231 211.421 519.444 211.723 519.725 211.947C520.01 212.169 520.362 212.279 520.782 212.279ZM528.372 213.183C527.741 213.183 527.197 213.044 526.74 212.765C526.285 212.484 525.934 212.092 525.687 211.589C525.443 211.083 525.321 210.495 525.321 209.825C525.321 209.154 525.443 208.563 525.687 208.052C525.934 207.538 526.278 207.137 526.718 206.85C527.162 206.561 527.679 206.416 528.27 206.416C528.61 206.416 528.947 206.473 529.279 206.586C529.612 206.7 529.914 206.884 530.187 207.14C530.46 207.393 530.677 207.728 530.839 208.146C531.001 208.563 531.082 209.078 531.082 209.688V210.115H526.037V209.245H530.059C530.059 208.876 529.985 208.546 529.838 208.257C529.693 207.967 529.485 207.738 529.216 207.571C528.949 207.403 528.633 207.319 528.27 207.319C527.869 207.319 527.522 207.419 527.23 207.617C526.94 207.813 526.717 208.069 526.561 208.384C526.404 208.7 526.326 209.038 526.326 209.399V209.978C526.326 210.473 526.412 210.892 526.582 211.235C526.755 211.576 526.995 211.836 527.302 212.015C527.609 212.191 527.966 212.279 528.372 212.279C528.636 212.279 528.875 212.242 529.088 212.169C529.304 212.092 529.49 211.978 529.646 211.828C529.802 211.674 529.923 211.484 530.008 211.257L530.98 211.529C530.877 211.859 530.706 212.149 530.464 212.399C530.223 212.646 529.924 212.839 529.569 212.978C529.214 213.115 528.815 213.183 528.372 213.183Z" fill="#737373"/>
<defs>
<filter id="filter0_d_950_709" x="81.832" y="87.8408" width="149.888" height="143.987" filterUnits="userSpaceOnUse" color-interpolation-filters="sRGB">
<feFlood flood-opacity="0" result="BackgroundImageFix"/>
<feColorMatrix in="SourceAlpha" type="matrix" values="0 0 0 0 0 0 0 0 0 0 0 0 0 0 0 0 0 0 127 0" result="hardAlpha"/>
<feOffset/>
<feGaussianBlur stdDeviation="3"/>
<feComposite in2="hardAlpha" operator="out"/>
<feColorMatrix type="matrix" values="0 0 0 0 0.0259489 0 0 0 0 0.0365764 0 0 0 0 0.0714956 0 0 0 0.63 0"/>
<feBlend mode="normal" in2="BackgroundImageFix" result="effect1_dropShadow_950_709"/>
<feBlend mode="normal" in="SourceGraphic" in2="effect1_dropShadow_950_709" result="shape"/>
</filter>
<filter id="filter1_d_950_709" x="77.0547" y="83.2446" width="159.441" height="153.182" filterUnits="userSpaceOnUse" color-interpolation-filters="sRGB">
<feFlood flood-opacity="0" result="BackgroundImageFix"/>
<feColorMatrix in="SourceAlpha" type="matrix" values="0 0 0 0 0 0 0 0 0 0 0 0 0 0 0 0 0 0 127 0" result="hardAlpha"/>
<feOffset/>
<feGaussianBlur stdDeviation="3"/>
<feComposite in2="hardAlpha" operator="out"/>
<feColorMatrix type="matrix" values="0 0 0 0 0.0259489 0 0 0 0 0.0365764 0 0 0 0 0.0714956 0 0 0 0.63 0"/>
<feBlend mode="normal" in2="BackgroundImageFix" result="effect1_dropShadow_950_709"/>
<feBlend mode="normal" in="SourceGraphic" in2="effect1_dropShadow_950_709" result="shape"/>
</filter>
<filter id="filter2_di_950_709" x="106.632" y="109.317" width="100.922" height="109.261" filterUnits="userSpaceOnUse" color-interpolation-filters="sRGB">
<feFlood flood-opacity="0" result="BackgroundImageFix"/>
<feColorMatrix in="SourceAlpha" type="matrix" values="0 0 0 0 0 0 0 0 0 0 0 0 0 0 0 0 0 0 127 0" result="hardAlpha"/>
<feOffset dy="4"/>
<feGaussianBlur stdDeviation="2.55"/>
<feComposite in2="hardAlpha" operator="out"/>
<feColorMatrix type="matrix" values="0 0 0 0 0 0 0 0 0 0 0 0 0 0 0 0 0 0 0.93 0"/>
<feBlend mode="normal" in2="BackgroundImageFix" result="effect1_dropShadow_950_709"/>
<feBlend mode="normal" in="SourceGraphic" in2="effect1_dropShadow_950_709" result="shape"/>
<feColorMatrix in="SourceAlpha" type="matrix" values="0 0 0 0 0 0 0 0 0 0 0 0 0 0 0 0 0 0 127 0" result="hardAlpha"/>
<feOffset dy="2"/>
<feGaussianBlur stdDeviation="2.4"/>
<feComposite in2="hardAlpha" operator="arithmetic" k2="-1" k3="1"/>
<feColorMatrix type="matrix" values="0 0 0 0 0 0 0 0 0 0 0 0 0 0 0 0 0 0 0.65 0"/>
<feBlend mode="normal" in2="shape" result="effect2_innerShadow_950_709"/>
</filter>
<linearGradient id="paint0_linear_950_709" x1="354.092" y1="160" x2="274.648" y2="124.038" gradientUnits="userSpaceOnUse">
<stop stop-color="white"/>
<stop offset="1" stop-color="white" stop-opacity="0"/>
</linearGradient>
<linearGradient id="paint1_linear_950_709" x1="378.103" y1="102.554" x2="245.778" y2="114.83" gradientUnits="userSpaceOnUse">
<stop stop-color="white"/>
<stop offset="1" stop-color="white" stop-opacity="0"/>
</linearGradient>
<linearGradient id="paint2_linear_950_709" x1="378.103" y1="217.446" x2="245.778" y2="205.17" gradientUnits="userSpaceOnUse">
<stop stop-color="white"/>
<stop offset="1" stop-color="white" stop-opacity="0"/>
</linearGradient>
</defs>
</svg>
